<svg width="22" height="22" viewBox="0 0 22 22" fill="none" xmlns="http://www.w3.org/2000/svg">
<path d="M12 6.8335C12 6.28121 11.5523 5.8335 11 5.8335C10.4477 5.8335 9.99999 6.28121 9.99999 6.8335H12ZM11 11.8335H9.99999C9.99999 12.0987 10.1054 12.3531 10.2929 12.5406L11 11.8335ZM12.3762 14.6239C12.7667 15.0145 13.3999 15.0145 13.7904 14.6239C14.181 14.2334 14.181 13.6002 13.7904 13.2097L12.3762 14.6239ZM19.1667 11.0002C19.1667 15.5105 15.5103 19.1668 11 19.1668V21.1668C16.6149 21.1668 21.1667 16.6151 21.1667 11.0002H19.1667ZM11 19.1668C6.48967 19.1668 2.83333 15.5105 2.83333 11.0002H0.833328C0.833328 16.6151 5.3851 21.1668 11 21.1668V19.1668ZM2.83333 11.0002C2.83333 6.48984 6.48967 2.8335 11 2.8335V0.833496C5.3851 0.833496 0.833328 5.38527 0.833328 11.0002H2.83333ZM11 2.8335C15.5103 2.8335 19.1667 6.48984 19.1667 11.0002H21.1667C21.1667 5.38527 16.6149 0.833496 11 0.833496V2.8335ZM9.99999 6.8335V11.8335H12V6.8335H9.99999ZM10.2929 12.5406L12.3762 14.6239L13.7904 13.2097L11.7071 11.1264L10.2929 12.5406Z" fill="#1263B4"/>
</svg>
