<svg xmlns="http://www.w3.org/2000/svg" version="1.1" xmlns:xlink="http://www.w3.org/1999/xlink" xmlns:svgjs="http://svgjs.com/svgjs" width="512" height="512" x="0" y="0" viewBox="0 0 512 512" style="enable-background:new 0 0 512 512" xml:space="preserve" class=""><g><g xmlns="http://www.w3.org/2000/svg" clip-rule="evenodd" fill-rule="evenodd"><circle cx="256" cy="256" fill="#ffffff" r="240" data-original="#ff5a54" class=""></circle><path d="m325.596 485.737c76.573-23.169 136.974-83.564 160.142-160.141l-88.012-88.012c-5.026-5.527-12.266-9.01-20.279-9.01-172.687 0-70.206 0-242.893 0-15.084 0-27.425 12.341-27.425 27.426 0 8.013 3.483 15.253 9.01 20.279z" fill="#ffffff" data-original="#db3a3c" class=""></path><path d="m134.553 228.574h242.893c15.084 0 27.426 12.341 27.426 27.426 0 15.084-12.341 27.426-27.426 27.426-172.687 0-70.206 0-242.893 0-15.084 0-27.425-12.341-27.425-27.426 0-15.084 12.341-27.426 27.425-27.426z" fill="#0a63b5" data-original="#ffffff" class=""></path></g></g></svg>