<svg width="24" height="18" viewBox="0 0 24 18" fill="none" xmlns="http://www.w3.org/2000/svg">
<path d="M22 15V17M2 15V17M22 10V3C22 1.89543 21.1046 1 20 1H4C2.89543 1 2 1.89543 2 3V10H22ZM23 15V12C23 10.8954 22.1046 10 21 10H3C1.89543 10 1 10.8954 1 12V15H23ZM6.5 10H9.5C10.0523 10 10.5 9.55228 10.5 9V7C10.5 6.44772 10.0523 6 9.5 6H6.5C5.94772 6 5.5 6.44772 5.5 7V9C5.5 9.55228 5.94772 10 6.5 10ZM14.5 10H17.5C18.0523 10 18.5 9.55228 18.5 9V7C18.5 6.44772 18.0523 6 17.5 6H14.5C13.9477 6 13.5 6.44772 13.5 7V9C13.5 9.55228 13.9477 10 14.5 10Z" stroke="#1263B4" stroke-width="2" stroke-linecap="round" stroke-linejoin="round"/>
</svg>
