<svg xmlns="http://www.w3.org/2000/svg" version="1.1" xmlns:xlink="http://www.w3.org/1999/xlink" xmlns:svgjs="http://svgjs.com/svgjs" width="512" height="512" x="0" y="0" viewBox="0 0 60 60" style="enable-background:new 0 0 512 512" xml:space="preserve" class=""><g><rect xmlns="http://www.w3.org/2000/svg" fill="#f9c84e" height="44" rx="7" width="58" x="1" y="8" data-original="#f9c84e" class=""></rect><g xmlns="http://www.w3.org/2000/svg" fill="#eaaa42"><path d="m20 8v44h-2v-6h-16.92a5.474 5.474 0 0 1 -.08-1v-1h17v-8h-17v-2h17v-8h-17v-2h17v-8h-17v-1a5.474 5.474 0 0 1 .08-1h16.92v-6z" fill="#eaaa42" data-original="#eaaa42" class=""></path><path d="m59 15v1h-17a2.006 2.006 0 0 1 -2-2v-6h2v6h16.92a5.474 5.474 0 0 1 .08 1z" fill="#eaaa42" data-original="#eaaa42" class=""></path><path d="m42 26v8h17v2h-17v8h17v1a5.474 5.474 0 0 1 -.08 1h-16.92v6h-2v-26a2.006 2.006 0 0 1 2-2h17v2z" fill="#eaaa42" data-original="#eaaa42" class=""></path></g></g></svg>