<svg data-v-423bf9ae="" xmlns="http://www.w3.org/2000/svg" viewBox="0 0 312 106" class="iconLeft"><!----><!----><!----><g data-v-423bf9ae="" id="ee5a9bbc-d968-415a-8888-47147ece7212" fill="#000000" transform="matrix(5.012530817141852,0,0,5.012530817141852,68.38213824215033,18.46988993425802)"><path d="M0.11 3.36L2.86 3.36L2.86 12.60L5.49 12.60L5.49 3.36L8.23 3.36L8.23 1.05L0.11 1.05ZM18.06 1.05L15.43 1.05L15.43 7.73C15.43 9.66 14.84 10.22 13.55 10.22C12.26 10.22 11.68 9.66 11.68 7.73L11.68 1.05L9.04 1.05L9.04 8.50C9.04 11.35 10.61 12.81 13.55 12.81C16.49 12.81 18.06 11.35 18.06 8.50ZM19.60 7.48L19.60 9.62L24.11 9.62L24.11 7.48ZM36.23 6.13L30.90 6.13L30.90 8.16L33.56 8.16C33.56 9.58 32.31 10.39 31.05 10.39C29.43 10.39 28.11 8.79 28.11 6.83C28.11 4.83 29.43 3.22 31.05 3.22C32.07 3.22 32.96 3.63 33.63 4.70L35.35 2.81C34.34 1.60 32.93 0.84 30.90 0.84C27.65 0.84 25.27 3.51 25.27 6.83C25.27 10.14 27.79 12.81 30.90 12.81C33.17 12.81 35.60 11.56 36.23 8.64ZM36.88 6.82C36.88 10.19 39.28 12.81 42.70 12.81C46.02 12.81 48.51 10.19 48.51 6.82C48.51 3.44 45.91 0.84 42.70 0.84C39.52 0.84 36.88 3.44 36.88 6.82ZM39.72 6.82C39.72 5.10 40.67 3.37 42.70 3.37C44.74 3.37 45.67 5.10 45.67 6.82C45.67 8.54 44.80 10.26 42.70 10.26C40.54 10.26 39.72 8.54 39.72 6.82Z"></path></g><defs data-v-423bf9ae=""><linearGradient data-v-423bf9ae="" gradientTransform="rotate(25)" id="58ccdf1f-d11e-4493-831a-84663b6aa70b" x1="0%" y1="0%" x2="100%" y2="0%"><stop data-v-423bf9ae="" offset="0%" style="stop-color: rgb(0, 118, 221); stop-opacity: 1;"></stop><stop data-v-423bf9ae="" offset="100%" style="stop-color: rgb(0, 205, 233); stop-opacity: 1;"></stop></linearGradient></defs><g data-v-423bf9ae="" id="eb713180-1932-4db2-a674-155119b83877" transform="matrix(1.0819777594672308,0,0,1.0819777594672308,-24.352164828856374,-0.7928877234468814)" stroke="none" fill="url(#58ccdf1f-d11e-4493-831a-84663b6aa70b)"><circle cx="45.77" cy="35.05" r=".717"></circle><path d="M67.956 33.45c-.071-4.919-3.502-9.376-7.624-9.906l-2.711-.458c-1.023-.131-2.621-.23-3.621-.297v-1.787c1-1.265 2.944-3.045 2.944-5.325 0-1.044-.087-1.677-.5-2.677H62v-1H37v1h6.859c-.413 1-.643 1.633-.643 2.677 0 2.272 2.784 4.046 2.784 5.312v1.814c0 .066-2.266.16-3.218.282l-2.109.458c-4.123.531-7.555 4.988-7.626 9.906L33 36.726C33 50.359 32.32 58 32.32 59s4.623 1 4.623 0 .529-25.009 1.698-24.779c.922.181 1.192 19.64 1.192 19.64l.276 10.192c-.677-.621-1.57-1.036-2.558-1.039l-4.579-.027a3.817 3.817 0 0 0-3.748 3.035c-1.46-.005-2.564-.011-3.035-.013-3.148-.01-3.158 3.042-3.158 3.042l-.009 3.052 24.424.075-.006 1.526-9.159-.029-.004 1.526a1.531 1.531 0 0 1-1.53 1.523l-3.053-.01a1.532 1.532 0 0 1-1.523-1.53l.004-1.526-9.159-.029-.017 5.987s-.005 1.645 2.952 1.655c3.896.012 10.436.242 14.625.255 0 0 .451 15.474.451 16.474s6.755 1 6.755 0 1.29-36.266 2.658-36.266c1.367 0 2.323 35.266 2.323 36.266s6.755 1 6.755 0c0-2 1.193-43.938 1.193-43.938s-.065-19.644 1.192-19.644S63.602 58 63.602 59s4.623 1 4.623 0S68 50.36 68 36.726l-.044-3.276zM30.814 66.021a2.29 2.29 0 0 1 2.153-1.521l4.579.014a2.285 2.285 0 0 1 2.144 1.533l-8.876-.026zM58 41.307C58 41.849 56.754 43 56.212 43H44.397C43.856 43 43 41.849 43 41.307V32.58c0-.541.856.42 1.397.42h.985c0-2 .443-2 .985-2h1.969c.541 0 .985 0 .985 2H54v-2h1v2h1.212c.542 0 1.788-.961 1.788-.42v8.727z"></path><path d="M51.536 33.694c-2.072 0-3.758 1.685-3.758 3.757s1.686 3.758 3.758 3.758 3.758-1.686 3.758-3.758-1.686-3.757-3.758-3.757zm0 6.122a2.368 2.368 0 0 1-2.365-2.365 2.367 2.367 0 0 1 2.365-2.364 2.368 2.368 0 0 1 2.365 2.364 2.368 2.368 0 0 1-2.365 2.365zM56.787 8s-1.301-6.611-3.66-6.611c-1.389 0-1.431.9-2.976.9-1.52 0-1.588-.917-2.976-.917-2.359 0-3.66 6.628-3.66 6.628h13.272z"></path></g><!----></svg>