<svg data-v-fde0c5aa="" xmlns="http://www.w3.org/2000/svg" viewBox="0 0 300 300" class="font"><!----><defs data-v-fde0c5aa=""><!----></defs><rect data-v-fde0c5aa="" fill="transparent" x="0" y="0" width="300px" height="300px" class="logo-background-square"></rect><defs data-v-fde0c5aa=""><linearGradient data-v-fde0c5aa="" gradientTransform="rotate(25)" id="047cc151-f314-4a70-8c00-735506f3a926" x1="0%" y1="0%" x2="100%" y2="0%"><stop data-v-fde0c5aa="" offset="0%" stop-color="#0076DD" stop-opacity="1"></stop><stop data-v-fde0c5aa="" offset="100%" stop-color="#00CDE9" stop-opacity="1"></stop></linearGradient></defs><g data-v-fde0c5aa="" id="13b68237-af7c-4c11-aed9-b6812dd78b42" fill="url(#047cc151-f314-4a70-8c00-735506f3a926)" transform="matrix(4.545454760407444,0,0,4.545454760407444,39.4999999790645,118.97726833417286)"><path d="M0.11 3.36L2.86 3.36L2.86 12.60L5.49 12.60L5.49 3.36L8.23 3.36L8.23 1.05L0.11 1.05ZM18.06 1.05L15.43 1.05L15.43 7.73C15.43 9.66 14.84 10.22 13.55 10.22C12.26 10.22 11.68 9.66 11.68 7.73L11.68 1.05L9.04 1.05L9.04 8.50C9.04 11.35 10.61 12.81 13.55 12.81C16.49 12.81 18.06 11.35 18.06 8.50ZM19.60 7.48L19.60 9.62L24.11 9.62L24.11 7.48ZM36.23 6.13L30.90 6.13L30.90 8.16L33.56 8.16C33.56 9.58 32.31 10.39 31.05 10.39C29.43 10.39 28.11 8.79 28.11 6.83C28.11 4.83 29.43 3.22 31.05 3.22C32.07 3.22 32.96 3.63 33.63 4.70L35.35 2.81C34.34 1.60 32.93 0.84 30.90 0.84C27.65 0.84 25.27 3.51 25.27 6.83C25.27 10.14 27.79 12.81 30.90 12.81C33.17 12.81 35.60 11.56 36.23 8.64ZM36.88 6.82C36.88 10.19 39.28 12.81 42.70 12.81C46.02 12.81 48.51 10.19 48.51 6.82C48.51 3.44 45.91 0.84 42.70 0.84C39.52 0.84 36.88 3.44 36.88 6.82ZM39.72 6.82C39.72 5.10 40.67 3.37 42.70 3.37C44.74 3.37 45.67 5.10 45.67 6.82C45.67 8.54 44.80 10.26 42.70 10.26C40.54 10.26 39.72 8.54 39.72 6.82Z"></path></g><!----><!----></svg>